solid Y Außenpfeiler vorne.stl
 facet normal 0.0 0.46940000000000004 0.883
  outer loop
   vertex 157.2182 120.7989 60.285500000000006
   vertex 160.6412 125.399 57.840300000000006
   vertex 157.2182 133.161 53.7145
  endloop
 endfacet
 facet normal 0.0 0.46940000000000004 0.883
  outer loop
   vertex 160.6412 125.399 57.840300000000006
   vertex 157.2182 120.7989 60.285500000000006
   vertex 161.22650000000002 124.6354 58.2462
  endloop
 endfacet
 facet normal 0.0 0.46940000000000004 0.883
  outer loop
   vertex 161.22650000000002 124.6354 58.2462
   vertex 157.2182 120.7989 60.285500000000006
   vertex 162.0156 124.03160000000001 58.5672
  endloop
 endfacet
 facet normal 0.0 0.46940000000000004 0.883
  outer loop
   vertex 162.0156 124.03160000000001 58.5672
   vertex 157.2182 120.7989 60.285500000000006
   vertex 162.9549 123.62870000000001 58.781400000000005
  endloop
 endfacet
 facet normal 0.0 0.46940000000000004 0.883
  outer loop
   vertex 162.9549 123.62870000000001 58.781400000000005
   vertex 157.2182 120.7989 60.285500000000006
   vertex 171.2182 120.7989 60.285500000000006
  endloop
 endfacet
 facet normal 0.0 0.46940000000000004 0.883
  outer loop
   vertex 157.2182 133.161 53.7145
   vertex 160.6412 125.399 57.840300000000006
   vertex 160.2997 126.27040000000001 57.3772
  endloop
 endfacet
 facet normal 0.0 0.46940000000000004 0.883
  outer loop
   vertex 157.2182 133.161 53.7145
   vertex 160.2997 126.27040000000001 57.3772
   vertex 160.2252 127.1901 56.8883
  endloop
 endfacet
 facet normal 0.0 0.46940000000000004 0.883
  outer loop
   vertex 162.9549 123.62870000000001 58.781400000000005
   vertex 171.2182 120.7989 60.285500000000006
   vertex 163.9802 123.4542 58.874100000000006
  endloop
 endfacet
 facet normal 0.0 0.46940000000000004 0.883
  outer loop
   vertex 163.9802 123.4542 58.874100000000006
   vertex 171.2182 120.7989 60.285500000000006
   vertex 165.0218 123.52000000000001 58.839200000000005
  endloop
 endfacet
 facet normal 0.0 0.46940000000000004 0.883
  outer loop
   vertex 165.0218 123.52000000000001 58.839200000000005
   vertex 171.2182 120.7989 60.285500000000006
   vertex 166.0086 123.8215 58.678900000000006
  endloop
 endfacet
 facet normal 0.0 0.46940000000000004 0.883
  outer loop
   vertex 166.0086 123.8215 58.678900000000006
   vertex 171.2182 120.7989 60.285500000000006
   vertex 166.8733 124.3383 58.4042
  endloop
 endfacet
 facet normal 0.0 0.46940000000000004 0.883
  outer loop
   vertex 166.8733 124.3383 58.4042
   vertex 171.2182 120.7989 60.285500000000006
   vertex 167.5572 125.0351 58.0338
  endloop
 endfacet
 facet normal 0.0 0.46940000000000004 0.883
  outer loop
   vertex 167.5572 125.0351 58.0338
   vertex 171.2182 120.7989 60.285500000000006
   vertex 168.01340000000002 125.8645 57.5929
  endloop
 endfacet
 facet normal 0.0 0.46940000000000004 0.883
  outer loop
   vertex 168.01340000000002 125.8645 57.5929
   vertex 171.2182 120.7989 60.285500000000006
   vertex 168.21110000000002 126.7699 57.111700000000006
  endloop
 endfacet
 facet normal 0.0 0.46940000000000004 0.883
  outer loop
   vertex 157.2182 133.161 53.7145
   vertex 162.42770000000002 130.13840000000002 55.3211
   vertex 171.2182 133.161 53.7145
  endloop
 endfacet
 facet normal 0.0 0.46940000000000004 0.883
  outer loop
   vertex 162.42770000000002 130.13840000000002 55.3211
   vertex 157.2182 133.161 53.7145
   vertex 161.56300000000002 129.6216 55.595800000000004
  endloop
 endfacet
 facet normal 0.0 0.46940000000000004 0.883
  outer loop
   vertex 161.56300000000002 129.6216 55.595800000000004
   vertex 157.2182 133.161 53.7145
   vertex 160.8791 128.9248 55.9662
  endloop
 endfacet
 facet normal 0.0 0.46940000000000004 0.883
  outer loop
   vertex 160.8791 128.9248 55.9662
   vertex 157.2182 133.161 53.7145
   vertex 160.4229 128.0954 56.4071
  endloop
 endfacet
 facet normal 0.0 0.46940000000000004 0.883
  outer loop
   vertex 160.4229 128.0954 56.4071
   vertex 157.2182 133.161 53.7145
   vertex 160.2252 127.1901 56.8883
  endloop
 endfacet
 facet normal 0.0 0.46940000000000004 0.883
  outer loop
   vertex 171.2182 133.161 53.7145
   vertex 162.42770000000002 130.13840000000002 55.3211
   vertex 163.4145 130.44 55.1608
  endloop
 endfacet
 facet normal 0.0 0.46940000000000004 0.883
  outer loop
   vertex 171.2182 133.161 53.7145
   vertex 163.4145 130.44 55.1608
   vertex 164.45610000000002 130.50570000000002 55.1259
  endloop
 endfacet
 facet normal 0.0 0.46940000000000004 0.883
  outer loop
   vertex 171.2182 133.161 53.7145
   vertex 164.45610000000002 130.50570000000002 55.1259
   vertex 165.4814 130.3312 55.2186
  endloop
 endfacet
 facet normal 0.0 0.46940000000000004 0.883
  outer loop
   vertex 171.2182 133.161 53.7145
   vertex 165.4814 130.3312 55.2186
   vertex 166.4207 129.9283 55.4328
  endloop
 endfacet
 facet normal 0.0 0.46940000000000004 0.883
  outer loop
   vertex 171.2182 133.161 53.7145
   vertex 166.4207 129.9283 55.4328
   vertex 167.2098 129.3245 55.753800000000005
  endloop
 endfacet
 facet normal 0.0 0.46940000000000004 0.883
  outer loop
   vertex 171.2182 133.161 53.7145
   vertex 167.2098 129.3245 55.753800000000005
   vertex 167.79510000000002 128.5609 56.1597
  endloop
 endfacet
 facet normal 0.0 0.46940000000000004 0.883
  outer loop
   vertex 171.2182 133.161 53.7145
   vertex 167.79510000000002 128.5609 56.1597
   vertex 168.13660000000002 127.68960000000001 56.622800000000005
  endloop
 endfacet
 facet normal 0.0 0.46940000000000004 0.883
  outer loop
   vertex 171.2182 133.161 53.7145
   vertex 168.13660000000002 127.68960000000001 56.622800000000005
   vertex 168.21110000000002 126.7699 57.111700000000006
  endloop
 endfacet
 facet normal 0.0 0.46940000000000004 0.883
  outer loop
   vertex 171.2182 133.161 53.7145
   vertex 168.21110000000002 126.7699 57.111700000000006
   vertex 171.2182 120.7989 60.285500000000006
  endloop
 endfacet
 facet normal 0.0 -0.4999 0.8661000000000001
  outer loop
   vertex 173.2182 128.5663 6.440300000000001
   vertex 155.2182 128.5663 6.440300000000001
   vertex 173.2182 127.76960000000001 5.9804
  endloop
 endfacet
 facet normal 0.0 0.1046 0.9945
  outer loop
   vertex 173.2182 125.98 5.6000000000000005
   vertex 155.2182 125.98 5.6000000000000005
   vertex 173.2182 125.0652 5.6962
  endloop
 endfacet
 facet normal 0.0 0.309 0.9511000000000001
  outer loop
   vertex 173.2182 125.0652 5.6962
   vertex 155.2182 125.0652 5.6962
   vertex 173.2182 124.19040000000001 5.9804
  endloop
 endfacet
 facet normal 0.0 0.1046 0.9945
  outer loop
   vertex 173.2182 125.0652 5.6962
   vertex 155.2182 125.98 5.6000000000000005
   vertex 155.2182 125.0652 5.6962
  endloop
 endfacet
 facet normal 0.0 0.6692 -0.7431
  outer loop
   vertex 173.2182 122.7102 12.9442
   vertex 155.2182 122.7102 12.9442
   vertex 155.2182 123.39370000000001 13.559700000000001
  endloop
 endfacet
 facet normal -1.0 0.0 0.0
  outer loop
   vertex 155.2182 117.98 45.0
   vertex 155.2182 121.6041 30.4599
   vertex 155.2182 117.98 0.0
  endloop
 endfacet
 facet normal -1.0 0.0 0.0
  outer loop
   vertex 155.2182 121.6041 30.4599
   vertex 155.2182 117.98 45.0
   vertex 155.2182 121.7954 31.3597
  endloop
 endfacet
 facet normal -1.0 0.0 0.0
  outer loop
   vertex 155.2182 121.7954 31.3597
   vertex 155.2182 117.98 45.0
   vertex 155.2182 122.1695 32.2
  endloop
 endfacet
 facet normal -1.0 0.0 0.0
  outer loop
   vertex 155.2182 122.1695 32.2
   vertex 155.2182 117.98 45.0
   vertex 155.2182 122.7102 32.9442
  endloop
 endfacet
 facet normal -1.0 0.0 0.0
  outer loop
   vertex 155.2182 122.7102 32.9442
   vertex 155.2182 117.98 45.0
   vertex 155.2182 123.39370000000001 33.5597
  endloop
 endfacet
 facet normal -1.0 0.0 0.0
  outer loop
   vertex 155.2182 123.39370000000001 33.5597
   vertex 155.2182 117.98 45.0
   vertex 155.2182 136.98000000000002 45.0
  endloop
 endfacet
 facet normal -1.0 0.0 0.0
  outer loop
   vertex 155.2182 123.39370000000001 33.5597
   vertex 155.2182 136.98000000000002 45.0
   vertex 155.2182 124.19040000000001 34.019600000000004
  endloop
 endfacet
 facet normal -1.0 0.0 0.0
  outer loop
   vertex 155.2182 124.19040000000001 34.019600000000004
   vertex 155.2182 136.98000000000002 45.0
   vertex 155.2182 125.0652 34.3038
  endloop
 endfacet
 facet normal -1.0 0.0 0.0
  outer loop
   vertex 155.2182 125.0652 34.3038
   vertex 155.2182 136.98000000000002 45.0
   vertex 155.2182 125.98 34.4
  endloop
 endfacet
 facet normal -1.0 0.0 0.0
  outer loop
   vertex 155.2182 125.98 34.4
   vertex 155.2182 136.98000000000002 45.0
   vertex 155.2182 126.8948 34.3038
  endloop
 endfacet
 facet normal -1.0 0.0 0.0
  outer loop
   vertex 155.2182 126.8948 34.3038
   vertex 155.2182 136.98000000000002 45.0
   vertex 155.2182 127.76960000000001 34.019600000000004
  endloop
 endfacet
 facet normal -1.0 0.0 0.0
  outer loop
   vertex 155.2182 127.76960000000001 34.019600000000004
   vertex 155.2182 136.98000000000002 45.0
   vertex 155.2182 128.5663 33.5597
  endloop
 endfacet
 facet normal -1.0 0.0 0.0
  outer loop
   vertex 155.2182 128.5663 33.5597
   vertex 155.2182 136.98000000000002 45.0
   vertex 155.2182 129.2498 32.9442
  endloop
 endfacet
 facet normal -1.0 0.0 0.0
  outer loop
   vertex 155.2182 129.2498 32.9442
   vertex 155.2182 136.98000000000002 45.0
   vertex 155.2182 129.7905 32.2
  endloop
 endfacet
 facet normal -1.0 0.0 0.0
  outer loop
   vertex 155.2182 129.7905 32.2
   vertex 155.2182 136.98000000000002 45.0
   vertex 155.2182 130.1647 31.3597
  endloop
 endfacet
 facet normal -1.0 0.0 0.0
  outer loop
   vertex 155.2182 130.1647 31.3597
   vertex 155.2182 136.98000000000002 45.0
   vertex 155.2182 130.35590000000002 30.4599
  endloop
 endfacet
 facet normal -1.0 0.0 0.0
  outer loop
   vertex 155.2182 130.35590000000002 30.4599
   vertex 155.2182 136.98000000000002 45.0
   vertex 155.2182 130.35590000000002 29.540100000000002
  endloop
 endfacet
 facet normal -1.0 0.0 0.0
  outer loop
   vertex 155.2182 130.35590000000002 29.540100000000002
   vertex 155.2182 136.98000000000002 45.0
   vertex 155.2182 130.35590000000002 10.459900000000001
  endloop
 endfacet
 facet normal -1.0 0.0 0.0
  outer loop
   vertex 155.2182 130.35590000000002 10.459900000000001
   vertex 155.2182 136.98000000000002 45.0
   vertex 155.2182 130.35590000000002 9.5401
  endloop
 endfacet
 facet normal -1.0 0.0 0.0
  outer loop
   vertex 155.2182 117.98 0.0
   vertex 155.2182 124.19040000000001 5.9804
   vertex 155.2182 136.98000000000002 0.0
  endloop
 endfacet
 facet normal -1.0 0.0 0.0
  outer loop
   vertex 155.2182 124.19040000000001 5.9804
   vertex 155.2182 117.98 0.0
   vertex 155.2182 123.39370000000001 6.440300000000001
  endloop
 endfacet
 facet normal -1.0 0.0 0.0
  outer loop
   vertex 155.2182 123.39370000000001 6.440300000000001
   vertex 155.2182 117.98 0.0
   vertex 155.2182 122.7102 7.0558000000000005
  endloop
 endfacet
 facet normal -1.0 0.0 0.0
  outer loop
   vertex 155.2182 122.7102 7.0558000000000005
   vertex 155.2182 117.98 0.0
   vertex 155.2182 122.1695 7.800000000000001
  endloop
 endfacet
 facet normal -1.0 0.0 0.0
  outer loop
   vertex 155.2182 122.1695 7.800000000000001
   vertex 155.2182 117.98 0.0
   vertex 155.2182 121.7954 8.6403
  endloop
 endfacet
 facet normal -1.0 0.0 0.0
  outer loop
   vertex 155.2182 121.7954 8.6403
   vertex 155.2182 117.98 0.0
   vertex 155.2182 121.6041 9.5401
  endloop
 endfacet
 facet normal -1.0 0.0 0.0
  outer loop
   vertex 155.2182 121.6041 9.5401
   vertex 155.2182 117.98 0.0
   vertex 155.2182 121.6041 30.4599
  endloop
 endfacet
 facet normal -1.0 0.0 0.0
  outer loop
   vertex 155.2182 121.6041 9.5401
   vertex 155.2182 121.6041 30.4599
   vertex 155.2182 121.6041 29.540100000000002
  endloop
 endfacet
 facet normal -1.0 0.0 0.0
  outer loop
   vertex 155.2182 121.6041 9.5401
   vertex 155.2182 121.6041 29.540100000000002
   vertex 155.2182 121.6041 10.459900000000001
  endloop
 endfacet
 facet normal -1.0 0.0 0.0
  outer loop
   vertex 155.2182 136.98000000000002 0.0
   vertex 155.2182 124.19040000000001 5.9804
   vertex 155.2182 125.0652 5.6962
  endloop
 endfacet
 facet normal -1.0 0.0 0.0
  outer loop
   vertex 155.2182 136.98000000000002 0.0
   vertex 155.2182 125.0652 5.6962
   vertex 155.2182 125.98 5.6000000000000005
  endloop
 endfacet
 facet normal -1.0 0.0 0.0
  outer loop
   vertex 155.2182 136.98000000000002 0.0
   vertex 155.2182 125.98 5.6000000000000005
   vertex 155.2182 126.8948 5.6962
  endloop
 endfacet
 facet normal -1.0 0.0 0.0
  outer loop
   vertex 155.2182 136.98000000000002 0.0
   vertex 155.2182 126.8948 5.6962
   vertex 155.2182 127.76960000000001 5.9804
  endloop
 endfacet
 facet normal -1.0 0.0 0.0
  outer loop
   vertex 155.2182 136.98000000000002 0.0
   vertex 155.2182 127.76960000000001 5.9804
   vertex 155.2182 128.5663 6.440300000000001
  endloop
 endfacet
 facet normal -1.0 0.0 0.0
  outer loop
   vertex 155.2182 136.98000000000002 0.0
   vertex 155.2182 128.5663 6.440300000000001
   vertex 155.2182 129.2498 7.0558000000000005
  endloop
 endfacet
 facet normal -1.0 0.0 0.0
  outer loop
   vertex 155.2182 136.98000000000002 0.0
   vertex 155.2182 129.2498 7.0558000000000005
   vertex 155.2182 129.7905 7.800000000000001
  endloop
 endfacet
 facet normal -1.0 0.0 0.0
  outer loop
   vertex 155.2182 136.98000000000002 0.0
   vertex 155.2182 129.7905 7.800000000000001
   vertex 155.2182 130.1647 8.6403
  endloop
 endfacet
 facet normal -1.0 0.0 0.0
  outer loop
   vertex 155.2182 136.98000000000002 0.0
   vertex 155.2182 130.1647 8.6403
   vertex 155.2182 130.35590000000002 9.5401
  endloop
 endfacet
 facet normal -1.0 0.0 0.0
  outer loop
   vertex 155.2182 136.98000000000002 0.0
   vertex 155.2182 130.35590000000002 9.5401
   vertex 155.2182 136.98000000000002 45.0
  endloop
 endfacet
 facet normal -1.0 0.0 0.0
  outer loop
   vertex 155.2182 121.7954 28.6403
   vertex 155.2182 121.6041 10.459900000000001
   vertex 155.2182 121.6041 29.540100000000002
  endloop
 endfacet
 facet normal -1.0 0.0 0.0
  outer loop
   vertex 155.2182 121.6041 10.459900000000001
   vertex 155.2182 121.7954 28.6403
   vertex 155.2182 121.7954 11.3597
  endloop
 endfacet
 facet normal -1.0 0.0 0.0
  outer loop
   vertex 155.2182 121.7954 11.3597
   vertex 155.2182 121.7954 28.6403
   vertex 155.2182 122.1695 27.8
  endloop
 endfacet
 facet normal -1.0 0.0 0.0
  outer loop
   vertex 155.2182 121.7954 11.3597
   vertex 155.2182 122.1695 27.8
   vertex 155.2182 122.1695 12.200000000000001
  endloop
 endfacet
 facet normal -1.0 0.0 0.0
  outer loop
   vertex 155.2182 122.1695 12.200000000000001
   vertex 155.2182 122.1695 27.8
   vertex 155.2182 122.7102 27.0558
  endloop
 endfacet
 facet normal -1.0 0.0 0.0
  outer loop
   vertex 155.2182 122.1695 12.200000000000001
   vertex 155.2182 122.7102 27.0558
   vertex 155.2182 122.7102 12.9442
  endloop
 endfacet
 facet normal -1.0 0.0 0.0
  outer loop
   vertex 155.2182 122.7102 12.9442
   vertex 155.2182 122.7102 27.0558
   vertex 155.2182 123.39370000000001 26.4403
  endloop
 endfacet
 facet normal -1.0 0.0 0.0
  outer loop
   vertex 155.2182 122.7102 12.9442
   vertex 155.2182 123.39370000000001 26.4403
   vertex 155.2182 123.39370000000001 13.559700000000001
  endloop
 endfacet
 facet normal -1.0 0.0 0.0
  outer loop
   vertex 155.2182 123.39370000000001 13.559700000000001
   vertex 155.2182 123.39370000000001 26.4403
   vertex 155.2182 124.19040000000001 25.9804
  endloop
 endfacet
 facet normal -1.0 0.0 0.0
  outer loop
   vertex 155.2182 123.39370000000001 13.559700000000001
   vertex 155.2182 124.19040000000001 25.9804
   vertex 155.2182 124.19040000000001 14.0196
  endloop
 endfacet
 facet normal -1.0 0.0 0.0
  outer loop
   vertex 155.2182 124.19040000000001 14.0196
   vertex 155.2182 124.19040000000001 25.9804
   vertex 155.2182 125.0652 25.6962
  endloop
 endfacet
 facet normal -1.0 0.0 0.0
  outer loop
   vertex 155.2182 124.19040000000001 14.0196
   vertex 155.2182 125.0652 25.6962
   vertex 155.2182 125.0652 14.3038
  endloop
 endfacet
 facet normal -1.0 0.0 0.0
  outer loop
   vertex 155.2182 125.0652 14.3038
   vertex 155.2182 125.0652 25.6962
   vertex 155.2182 125.98 25.6
  endloop
 endfacet
 facet normal -1.0 0.0 0.0
  outer loop
   vertex 155.2182 125.0652 14.3038
   vertex 155.2182 125.98 25.6
   vertex 155.2182 125.98 14.4
  endloop
 endfacet
 facet normal -1.0 0.0 0.0
  outer loop
   vertex 155.2182 125.98 14.4
   vertex 155.2182 125.98 25.6
   vertex 155.2182 126.8948 25.6962
  endloop
 endfacet
 facet normal -1.0 0.0 0.0
  outer loop
   vertex 155.2182 125.98 14.4
   vertex 155.2182 126.8948 25.6962
   vertex 155.2182 126.8948 14.3038
  endloop
 endfacet
 facet normal -1.0 0.0 0.0
  outer loop
   vertex 155.2182 126.8948 14.3038
   vertex 155.2182 126.8948 25.6962
   vertex 155.2182 127.76960000000001 25.9804
  endloop
 endfacet
 facet normal -1.0 0.0 0.0
  outer loop
   vertex 155.2182 126.8948 14.3038
   vertex 155.2182 127.76960000000001 25.9804
   vertex 155.2182 127.76960000000001 14.0196
  endloop
 endfacet
 facet normal -1.0 0.0 0.0
  outer loop
   vertex 155.2182 127.76960000000001 14.0196
   vertex 155.2182 127.76960000000001 25.9804
   vertex 155.2182 128.1679 26.2103
  endloop
 endfacet
 facet normal -1.0 0.0 0.0
  outer loop
   vertex 155.2182 127.76960000000001 14.0196
   vertex 155.2182 128.1679 26.2103
   vertex 155.2182 128.5663 13.559700000000001
  endloop
 endfacet
 facet normal -1.0 0.0 0.0
  outer loop
   vertex 155.2182 128.5663 13.559700000000001
   vertex 155.2182 128.1679 26.2103
   vertex 155.2182 128.5663 26.4403
  endloop
 endfacet
 facet normal -1.0 0.0 0.0
  outer loop
   vertex 155.2182 128.5663 13.559700000000001
   vertex 155.2182 128.5663 26.4403
   vertex 155.2182 129.2498 27.0558
  endloop
 endfacet
 facet normal -1.0 0.0 0.0
  outer loop
   vertex 155.2182 128.5663 13.559700000000001
   vertex 155.2182 129.2498 27.0558
   vertex 155.2182 129.2498 12.9442
  endloop
 endfacet
 facet normal -1.0 0.0 0.0
  outer loop
   vertex 155.2182 129.2498 12.9442
   vertex 155.2182 129.2498 27.0558
   vertex 155.2182 129.7905 27.8
  endloop
 endfacet
 facet normal -1.0 0.0 0.0
  outer loop
   vertex 155.2182 129.2498 12.9442
   vertex 155.2182 129.7905 27.8
   vertex 155.2182 129.7905 12.200000000000001
  endloop
 endfacet
 facet normal -1.0 0.0 0.0
  outer loop
   vertex 155.2182 129.7905 12.200000000000001
   vertex 155.2182 129.7905 27.8
   vertex 155.2182 130.1647 28.6403
  endloop
 endfacet
 facet normal -1.0 0.0 0.0
  outer loop
   vertex 155.2182 129.7905 12.200000000000001
   vertex 155.2182 130.1647 28.6403
   vertex 155.2182 130.1647 11.3597
  endloop
 endfacet
 facet normal -1.0 0.0 0.0
  outer loop
   vertex 155.2182 130.1647 11.3597
   vertex 155.2182 130.1647 28.6403
   vertex 155.2182 130.35590000000002 29.540100000000002
  endloop
 endfacet
 facet normal -1.0 0.0 0.0
  outer loop
   vertex 155.2182 130.1647 11.3597
   vertex 155.2182 130.35590000000002 29.540100000000002
   vertex 155.2182 130.35590000000002 10.459900000000001
  endloop
 endfacet
 facet normal 0.0 0.809 0.5878
  outer loop
   vertex 173.2182 122.1695 27.8
   vertex 173.2182 122.7102 27.0558
   vertex 155.2182 122.7102 27.0558
  endloop
 endfacet
 facet normal 0.9471 0.1506 0.28340000000000004
  outer loop
   vertex 173.2182 136.98000000000002 45.0
   vertex 171.2182 133.161 53.7145
   vertex 171.2182 120.7989 60.285500000000006
  endloop
 endfacet
 facet normal 0.0 0.9136000000000001 0.4067
  outer loop
   vertex 173.2182 121.7954 8.6403
   vertex 173.2182 122.1695 7.800000000000001
   vertex 155.2182 122.1695 7.800000000000001
  endloop
 endfacet
 facet normal 0.0 0.4999 0.8661000000000001
  outer loop
   vertex 173.2182 124.19040000000001 5.9804
   vertex 155.2182 124.19040000000001 5.9804
   vertex 173.2182 123.39370000000001 6.440300000000001
  endloop
 endfacet
 facet normal 0.0 0.309 -0.9511000000000001
  outer loop
   vertex 173.2182 124.19040000000001 14.0196
   vertex 155.2182 125.0652 14.3038
   vertex 173.2182 125.0652 14.3038
  endloop
 endfacet
 facet normal -0.9471 0.1506 0.28340000000000004
  outer loop
   vertex 155.2182 136.98000000000002 45.0
   vertex 157.2182 120.7989 60.285500000000006
   vertex 157.2182 133.161 53.7145
  endloop
 endfacet
 facet normal 0.0 -0.9135000000000001 0.4068
  outer loop
   vertex 155.2182 130.1647 8.6403
   vertex 173.2182 129.7905 7.800000000000001
   vertex 173.2182 130.1647 8.6403
  endloop
 endfacet
 facet normal 0.0 -0.809 -0.5878
  outer loop
   vertex 173.2182 129.2498 12.9442
   vertex 155.2182 129.7905 12.200000000000001
   vertex 173.2182 129.7905 12.200000000000001
  endloop
 endfacet
 facet normal 0.0 -0.309 0.9511000000000001
  outer loop
   vertex 173.2182 126.8948 5.6962
   vertex 155.2182 127.76960000000001 5.9804
   vertex 155.2182 126.8948 5.6962
  endloop
 endfacet
 facet normal 0.0 0.6692 0.7431
  outer loop
   vertex 173.2182 122.7102 7.0558000000000005
   vertex 155.2182 123.39370000000001 6.440300000000001
   vertex 155.2182 122.7102 7.0558000000000005
  endloop
 endfacet
 facet normal 0.0 0.9781000000000001 0.20800000000000002
  outer loop
   vertex 173.2182 121.6041 29.540100000000002
   vertex 155.2182 121.7954 28.6403
   vertex 155.2182 121.6041 29.540100000000002
  endloop
 endfacet
 facet normal 0.9915 0.0 0.1297
  outer loop
   vertex 173.2182 136.98000000000002 45.0
   vertex 171.2182 120.7989 60.285500000000006
   vertex 173.2182 117.98 45.0
  endloop
 endfacet
 facet normal 0.0 -0.1046 -0.9945
  outer loop
   vertex 173.2182 125.98 14.4
   vertex 155.2182 126.8948 14.3038
   vertex 173.2182 126.8948 14.3038
  endloop
 endfacet
 facet normal 0.0 0.309 0.9511000000000001
  outer loop
   vertex 173.2182 124.19040000000001 5.9804
   vertex 155.2182 125.0652 5.6962
   vertex 155.2182 124.19040000000001 5.9804
  endloop
 endfacet
 facet normal 0.0 0.9781000000000001 0.20800000000000002
  outer loop
   vertex 173.2182 121.6041 9.5401
   vertex 173.2182 121.7954 8.6403
   vertex 155.2182 121.7954 8.6403
  endloop
 endfacet
 facet normal 0.0 0.809 0.5878
  outer loop
   vertex 173.2182 122.1695 7.800000000000001
   vertex 155.2182 122.7102 7.0558000000000005
   vertex 155.2182 122.1695 7.800000000000001
  endloop
 endfacet
 facet normal 0.0 0.9781000000000001 0.20800000000000002
  outer loop
   vertex 173.2182 121.6041 9.5401
   vertex 155.2182 121.7954 8.6403
   vertex 155.2182 121.6041 9.5401
  endloop
 endfacet
 facet normal 0.0 0.809 0.5878
  outer loop
   vertex 173.2182 122.1695 7.800000000000001
   vertex 173.2182 122.7102 7.0558000000000005
   vertex 155.2182 122.7102 7.0558000000000005
  endloop
 endfacet
 facet normal 0.0 0.1046 -0.9945
  outer loop
   vertex 173.2182 125.0652 14.3038
   vertex 155.2182 125.98 14.4
   vertex 173.2182 125.98 14.4
  endloop
 endfacet
 facet normal 0.0 -0.9782000000000001 -0.2079
  outer loop
   vertex 173.2182 130.1647 31.3597
   vertex 155.2182 130.35590000000002 30.4599
   vertex 173.2182 130.35590000000002 30.4599
  endloop
 endfacet
 facet normal 0.0 0.809 -0.5878
  outer loop
   vertex 173.2182 122.7102 12.9442
   vertex 173.2182 122.1695 12.200000000000001
   vertex 155.2182 122.7102 12.9442
  endloop
 endfacet
 facet normal 0.0 0.9136000000000001 0.4067
  outer loop
   vertex 173.2182 121.7954 8.6403
   vertex 155.2182 122.1695 7.800000000000001
   vertex 155.2182 121.7954 8.6403
  endloop
 endfacet
 facet normal 0.0 0.1046 0.9945
  outer loop
   vertex 173.2182 125.98 25.6
   vertex 155.2182 125.98 25.6
   vertex 173.2182 125.0652 25.6962
  endloop
 endfacet
 facet normal -0.9915 0.0 0.1297
  outer loop
   vertex 155.2182 136.98000000000002 45.0
   vertex 155.2182 117.98 45.0
   vertex 157.2182 120.7989 60.285500000000006
  endloop
 endfacet
 facet normal 0.0 0.4999 0.8661000000000001
  outer loop
   vertex 173.2182 123.39370000000001 6.440300000000001
   vertex 155.2182 124.19040000000001 5.9804
   vertex 155.2182 123.39370000000001 6.440300000000001
  endloop
 endfacet
 facet normal 0.0 -0.6692 0.7431
  outer loop
   vertex 173.2182 129.2498 7.0558000000000005
   vertex 155.2182 129.2498 7.0558000000000005
   vertex 173.2182 128.5663 6.440300000000001
  endloop
 endfacet
 facet normal 0.0 -0.1046 0.9945
  outer loop
   vertex 173.2182 125.98 25.6
   vertex 155.2182 126.8948 25.6962
   vertex 155.2182 125.98 25.6
  endloop
 endfacet
 facet normal 0.0 -0.9782000000000001 -0.2079
  outer loop
   vertex 155.2182 130.1647 11.3597
   vertex 155.2182 130.35590000000002 10.459900000000001
   vertex 173.2182 130.1647 11.3597
  endloop
 endfacet
 facet normal 0.0 0.6692 0.7431
  outer loop
   vertex 173.2182 123.39370000000001 6.440300000000001
   vertex 155.2182 123.39370000000001 6.440300000000001
   vertex 173.2182 122.7102 7.0558000000000005
  endloop
 endfacet
 facet normal 0.0 0.4999 -0.8661000000000001
  outer loop
   vertex 173.2182 123.39370000000001 13.559700000000001
   vertex 155.2182 124.19040000000001 14.0196
   vertex 173.2182 124.19040000000001 14.0196
  endloop
 endfacet
 facet normal 0.0 -1.0 0.0
  outer loop
   vertex 155.2182 130.35590000000002 10.459900000000001
   vertex 155.2182 130.35590000000002 9.5401
   vertex 173.2182 130.35590000000002 9.5401
  endloop
 endfacet
 facet normal 0.0 0.9781000000000001 0.20800000000000002
  outer loop
   vertex 173.2182 121.6041 29.540100000000002
   vertex 173.2182 121.7954 28.6403
   vertex 155.2182 121.7954 28.6403
  endloop
 endfacet
 facet normal 0.0 -0.9346000000000001 0.3558
  outer loop
   vertex 171.2182 120.7989 60.285500000000006
   vertex 158.2182 114.98 45.0
   vertex 170.2182 114.98 45.0
  endloop
 endfacet
 facet normal 0.0 -0.9346000000000001 0.3558
  outer loop
   vertex 158.2182 114.98 45.0
   vertex 171.2182 120.7989 60.285500000000006
   vertex 157.2182 120.7989 60.285500000000006
  endloop
 endfacet
 facet normal 0.6902 -0.6902 0.21760000000000002
  outer loop
   vertex 171.2182 120.7989 60.285500000000006
   vertex 170.2182 114.98 45.0
   vertex 173.2182 117.98 45.0
  endloop
 endfacet
 facet normal 0.0 1.0 0.0
  outer loop
   vertex 155.2182 136.98000000000002 45.0
   vertex 173.2182 136.98000000000002 0.0
   vertex 155.2182 136.98000000000002 0.0
  endloop
 endfacet
 facet normal 0.0 1.0 0.0
  outer loop
   vertex 173.2182 136.98000000000002 0.0
   vertex 155.2182 136.98000000000002 45.0
   vertex 173.2182 136.98000000000002 45.0
  endloop
 endfacet
 facet normal 0.0 0.9159 0.40140000000000003
  outer loop
   vertex 157.2182 133.161 53.7145
   vertex 173.2182 136.98000000000002 45.0
   vertex 155.2182 136.98000000000002 45.0
  endloop
 endfacet
 facet normal 0.0 0.9159 0.40140000000000003
  outer loop
   vertex 173.2182 136.98000000000002 45.0
   vertex 157.2182 133.161 53.7145
   vertex 171.2182 133.161 53.7145
  endloop
 endfacet
 facet normal -0.8942 -0.3952 0.2101
  outer loop
   vertex 167.79510000000002 128.5609 56.1597
   vertex 167.2098 122.28410000000001 42.508700000000005
   vertex 167.79510000000002 121.52050000000001 42.9146
  endloop
 endfacet
 facet normal -0.7479 -0.5861000000000001 0.3116
  outer loop
   vertex 167.2098 122.28410000000001 42.508700000000005
   vertex 167.79510000000002 128.5609 56.1597
   vertex 167.2098 129.3245 55.753800000000005
  endloop
 endfacet
 facet normal -0.7479 -0.5861000000000001 0.3116
  outer loop
   vertex 167.2098 122.28410000000001 42.508700000000005
   vertex 166.4207 129.9283 55.4328
   vertex 166.4207 122.8879 42.1877
  endloop
 endfacet
 facet normal -0.5506 -0.7371000000000001 0.39180000000000004
  outer loop
   vertex 166.4207 129.9283 55.4328
   vertex 167.2098 122.28410000000001 42.508700000000005
   vertex 167.2098 129.3245 55.753800000000005
  endloop
 endfacet
 facet normal -0.5506 -0.7371000000000001 0.39180000000000004
  outer loop
   vertex 166.4207 122.8879 42.1877
   vertex 165.4814 130.3312 55.2186
   vertex 165.4814 123.2908 41.973600000000005
  endloop
 endfacet
 facet normal -0.3158 -0.8378 0.44530000000000003
  outer loop
   vertex 165.4814 130.3312 55.2186
   vertex 166.4207 122.8879 42.1877
   vertex 166.4207 129.9283 55.4328
  endloop
 endfacet
 facet normal -0.4476 0.7896000000000001 -0.4197
  outer loop
   vertex 166.0086 116.78110000000001 45.433800000000005
   vertex 166.8733 124.3383 58.4042
   vertex 166.8733 117.29790000000001 45.1591
  endloop
 endfacet
 facet normal -0.6638000000000001 0.6604 -0.35100000000000003
  outer loop
   vertex 166.8733 124.3383 58.4042
   vertex 166.0086 116.78110000000001 45.433800000000005
   vertex 166.0086 123.8215 58.678900000000006
  endloop
 endfacet
 facet normal 0.059500000000000004 0.8814000000000001 -0.4685
  outer loop
   vertex 163.9802 116.41380000000001 45.629000000000005
   vertex 165.0218 123.52000000000001 58.839200000000005
   vertex 165.0218 116.4795 45.594100000000005
  endloop
 endfacet
 facet normal -0.20090000000000002 0.865 -0.45980000000000004
  outer loop
   vertex 165.0218 123.52000000000001 58.839200000000005
   vertex 163.9802 116.41380000000001 45.629000000000005
   vertex 163.9802 123.4542 58.874100000000006
  endloop
 endfacet
 facet normal 0.9796 0.1774 -0.09430000000000001
  outer loop
   vertex 160.2997 119.2299 44.1321
   vertex 160.6412 125.399 57.840300000000006
   vertex 160.6412 118.35860000000001 44.5953
  endloop
 endfacet
 facet normal 0.8942 0.3952 -0.2101
  outer loop
   vertex 160.6412 125.399 57.840300000000006
   vertex 160.2997 119.2299 44.1321
   vertex 160.2997 126.27040000000001 57.3772
  endloop
 endfacet
 facet normal -0.9488000000000001 0.27890000000000004 -0.1482
  outer loop
   vertex 168.01340000000002 125.8645 57.5929
   vertex 168.21110000000002 119.72940000000001 43.866600000000005
   vertex 168.01340000000002 118.8241 44.3478
  endloop
 endfacet
 facet normal -0.9982000000000001 0.052500000000000005 -0.0279
  outer loop
   vertex 168.21110000000002 119.72940000000001 43.866600000000005
   vertex 168.01340000000002 125.8645 57.5929
   vertex 168.21110000000002 126.7699 57.111700000000006
  endloop
 endfacet
 facet normal -0.9796 -0.1774 0.09430000000000001
  outer loop
   vertex 168.13660000000002 127.68960000000001 56.622800000000005
   vertex 167.79510000000002 121.52050000000001 42.9146
   vertex 168.13660000000002 120.6491 43.377700000000004
  endloop
 endfacet
 facet normal -0.8942 -0.3952 0.2101
  outer loop
   vertex 167.79510000000002 121.52050000000001 42.9146
   vertex 168.13660000000002 127.68960000000001 56.622800000000005
   vertex 167.79510000000002 128.5609 56.1597
  endloop
 endfacet
 facet normal 0.8348 -0.4862 0.2584
  outer loop
   vertex 160.8791 121.8844 42.7211
   vertex 160.4229 128.0954 56.4071
   vertex 160.4229 121.055 43.162
  endloop
 endfacet
 facet normal 0.9488000000000001 -0.27890000000000004 0.1482
  outer loop
   vertex 160.4229 128.0954 56.4071
   vertex 160.8791 121.8844 42.7211
   vertex 160.8791 128.9248 55.9662
  endloop
 endfacet
 facet normal 0.7479 0.5861000000000001 -0.3116
  outer loop
   vertex 161.22650000000002 124.6354 58.2462
   vertex 162.0156 116.9912 45.3221
   vertex 161.22650000000002 117.595 45.001200000000004
  endloop
 endfacet
 facet normal 0.5506 0.7371000000000001 -0.39180000000000004
  outer loop
   vertex 162.0156 116.9912 45.3221
   vertex 161.22650000000002 124.6354 58.2462
   vertex 162.0156 124.03160000000001 58.5672
  endloop
 endfacet
 facet normal 0.5506 0.7371000000000001 -0.39180000000000004
  outer loop
   vertex 162.0156 124.03160000000001 58.5672
   vertex 162.9549 116.5883 45.536300000000004
   vertex 162.0156 116.9912 45.3221
  endloop
 endfacet
 facet normal 0.3158 0.8378 -0.44530000000000003
  outer loop
   vertex 162.9549 116.5883 45.536300000000004
   vertex 162.0156 124.03160000000001 58.5672
   vertex 162.9549 123.62870000000001 58.781400000000005
  endloop
 endfacet
 facet normal -0.6638000000000001 0.6604 -0.35100000000000003
  outer loop
   vertex 166.8733 124.3383 58.4042
   vertex 167.5572 117.99470000000001 44.7887
   vertex 166.8733 117.29790000000001 45.1591
  endloop
 endfacet
 facet normal -0.8348 0.4862 -0.2584
  outer loop
   vertex 167.5572 117.99470000000001 44.7887
   vertex 166.8733 124.3383 58.4042
   vertex 167.5572 125.0351 58.0338
  endloop
 endfacet
 facet normal 0.8942 0.3952 -0.2101
  outer loop
   vertex 160.6412 118.35860000000001 44.5953
   vertex 161.22650000000002 124.6354 58.2462
   vertex 161.22650000000002 117.595 45.001200000000004
  endloop
 endfacet
 facet normal 0.7479 0.5861000000000001 -0.3116
  outer loop
   vertex 161.22650000000002 124.6354 58.2462
   vertex 160.6412 118.35860000000001 44.5953
   vertex 160.6412 125.399 57.840300000000006
  endloop
 endfacet
 facet normal -0.059500000000000004 -0.8814000000000001 0.4685
  outer loop
   vertex 164.45610000000002 130.50570000000002 55.1259
   vertex 163.4145 123.3995 41.9157
   vertex 164.45610000000002 123.4653 41.8808
  endloop
 endfacet
 facet normal 0.20090000000000002 -0.865 0.45980000000000004
  outer loop
   vertex 163.4145 123.3995 41.9157
   vertex 164.45610000000002 130.50570000000002 55.1259
   vertex 163.4145 130.44 55.1608
  endloop
 endfacet
 facet normal 0.20090000000000002 -0.865 0.45980000000000004
  outer loop
   vertex 163.4145 130.44 55.1608
   vertex 162.42770000000002 123.098 42.076
   vertex 163.4145 123.3995 41.9157
  endloop
 endfacet
 facet normal 0.4476 -0.7896000000000001 0.4197
  outer loop
   vertex 162.42770000000002 123.098 42.076
   vertex 163.4145 130.44 55.1608
   vertex 162.42770000000002 130.13840000000002 55.3211
  endloop
 endfacet
 facet normal 0.6638000000000001 -0.6604 0.35100000000000003
  outer loop
   vertex 161.56300000000002 122.58120000000001 42.3507
   vertex 160.8791 128.9248 55.9662
   vertex 160.8791 121.8844 42.7211
  endloop
 endfacet
 facet normal 0.8348 -0.4862 0.2584
  outer loop
   vertex 160.8791 128.9248 55.9662
   vertex 161.56300000000002 122.58120000000001 42.3507
   vertex 161.56300000000002 129.6216 55.595800000000004
  endloop
 endfacet
 facet normal -0.3158 -0.8378 0.44530000000000003
  outer loop
   vertex 165.4814 123.2908 41.973600000000005
   vertex 164.45610000000002 130.50570000000002 55.1259
   vertex 164.45610000000002 123.4653 41.8808
  endloop
 endfacet
 facet normal -0.059500000000000004 -0.8814000000000001 0.4685
  outer loop
   vertex 164.45610000000002 130.50570000000002 55.1259
   vertex 165.4814 123.2908 41.973600000000005
   vertex 165.4814 130.3312 55.2186
  endloop
 endfacet
 facet normal 0.9488000000000001 -0.27890000000000004 0.1482
  outer loop
   vertex 160.4229 121.055 43.162
   vertex 160.2252 127.1901 56.8883
   vertex 160.2252 120.1496 43.6432
  endloop
 endfacet
 facet normal 0.9982000000000001 -0.052500000000000005 0.0279
  outer loop
   vertex 160.2252 127.1901 56.8883
   vertex 160.4229 121.055 43.162
   vertex 160.4229 128.0954 56.4071
  endloop
 endfacet
 facet normal 0.0 0.46940000000000004 0.883
  outer loop
   vertex 160.2997 119.2299 44.1321
   vertex 160.4229 121.055 43.162
   vertex 160.2252 120.1496 43.6432
  endloop
 endfacet
 facet normal 0.0 0.46940000000000004 0.883
  outer loop
   vertex 160.4229 121.055 43.162
   vertex 160.2997 119.2299 44.1321
   vertex 160.6412 118.35860000000001 44.5953
  endloop
 endfacet
 facet normal 0.0 0.46940000000000004 0.883
  outer loop
   vertex 160.4229 121.055 43.162
   vertex 160.6412 118.35860000000001 44.5953
   vertex 160.8791 121.8844 42.7211
  endloop
 endfacet
 facet normal 0.0 0.46940000000000004 0.883
  outer loop
   vertex 160.8791 121.8844 42.7211
   vertex 160.6412 118.35860000000001 44.5953
   vertex 161.22650000000002 117.595 45.001200000000004
  endloop
 endfacet
 facet normal 0.0 0.46940000000000004 0.883
  outer loop
   vertex 160.8791 121.8844 42.7211
   vertex 161.22650000000002 117.595 45.001200000000004
   vertex 161.56300000000002 122.58120000000001 42.3507
  endloop
 endfacet
 facet normal 0.0 0.46940000000000004 0.883
  outer loop
   vertex 161.56300000000002 122.58120000000001 42.3507
   vertex 161.22650000000002 117.595 45.001200000000004
   vertex 162.0156 116.9912 45.3221
  endloop
 endfacet
 facet normal 0.0 0.46940000000000004 0.883
  outer loop
   vertex 161.56300000000002 122.58120000000001 42.3507
   vertex 162.0156 116.9912 45.3221
   vertex 162.42770000000002 123.098 42.076
  endloop
 endfacet
 facet normal 0.0 0.46940000000000004 0.883
  outer loop
   vertex 162.42770000000002 123.098 42.076
   vertex 162.0156 116.9912 45.3221
   vertex 162.9549 116.5883 45.536300000000004
  endloop
 endfacet
 facet normal 0.0 0.46940000000000004 0.883
  outer loop
   vertex 162.42770000000002 123.098 42.076
   vertex 162.9549 116.5883 45.536300000000004
   vertex 163.4145 123.3995 41.9157
  endloop
 endfacet
 facet normal 0.0 0.46940000000000004 0.883
  outer loop
   vertex 163.4145 123.3995 41.9157
   vertex 162.9549 116.5883 45.536300000000004
   vertex 163.9802 116.41380000000001 45.629000000000005
  endloop
 endfacet
 facet normal 0.0 0.46940000000000004 0.883
  outer loop
   vertex 163.4145 123.3995 41.9157
   vertex 163.9802 116.41380000000001 45.629000000000005
   vertex 164.45610000000002 123.4653 41.8808
  endloop
 endfacet
 facet normal 0.0 0.46940000000000004 0.883
  outer loop
   vertex 164.45610000000002 123.4653 41.8808
   vertex 163.9802 116.41380000000001 45.629000000000005
   vertex 165.0218 116.4795 45.594100000000005
  endloop
 endfacet
 facet normal 0.0 0.46940000000000004 0.883
  outer loop
   vertex 164.45610000000002 123.4653 41.8808
   vertex 165.0218 116.4795 45.594100000000005
   vertex 165.4814 123.2908 41.973600000000005
  endloop
 endfacet
 facet normal 0.0 0.46940000000000004 0.883
  outer loop
   vertex 165.4814 123.2908 41.973600000000005
   vertex 165.0218 116.4795 45.594100000000005
   vertex 166.0086 116.78110000000001 45.433800000000005
  endloop
 endfacet
 facet normal 0.0 0.46940000000000004 0.883
  outer loop
   vertex 165.4814 123.2908 41.973600000000005
   vertex 166.0086 116.78110000000001 45.433800000000005
   vertex 166.4207 122.8879 42.1877
  endloop
 endfacet
 facet normal 0.0 0.46940000000000004 0.883
  outer loop
   vertex 166.4207 122.8879 42.1877
   vertex 166.0086 116.78110000000001 45.433800000000005
   vertex 166.8733 117.29790000000001 45.1591
  endloop
 endfacet
 facet normal 0.0 0.46940000000000004 0.883
  outer loop
   vertex 166.4207 122.8879 42.1877
   vertex 166.8733 117.29790000000001 45.1591
   vertex 167.2098 122.28410000000001 42.508700000000005
  endloop
 endfacet
 facet normal 0.0 0.46940000000000004 0.883
  outer loop
   vertex 167.2098 122.28410000000001 42.508700000000005
   vertex 166.8733 117.29790000000001 45.1591
   vertex 167.5572 117.99470000000001 44.7887
  endloop
 endfacet
 facet normal 0.0 0.46940000000000004 0.883
  outer loop
   vertex 167.2098 122.28410000000001 42.508700000000005
   vertex 167.5572 117.99470000000001 44.7887
   vertex 167.79510000000002 121.52050000000001 42.9146
  endloop
 endfacet
 facet normal 0.0 0.46940000000000004 0.883
  outer loop
   vertex 167.79510000000002 121.52050000000001 42.9146
   vertex 167.5572 117.99470000000001 44.7887
   vertex 168.01340000000002 118.8241 44.3478
  endloop
 endfacet
 facet normal 0.0 0.46940000000000004 0.883
  outer loop
   vertex 167.79510000000002 121.52050000000001 42.9146
   vertex 168.01340000000002 118.8241 44.3478
   vertex 168.13660000000002 120.6491 43.377700000000004
  endloop
 endfacet
 facet normal 0.0 0.46940000000000004 0.883
  outer loop
   vertex 168.13660000000002 120.6491 43.377700000000004
   vertex 168.01340000000002 118.8241 44.3478
   vertex 168.21110000000002 119.72940000000001 43.866600000000005
  endloop
 endfacet
 facet normal 0.4476 -0.7896000000000001 0.4197
  outer loop
   vertex 162.42770000000002 130.13840000000002 55.3211
   vertex 161.56300000000002 122.58120000000001 42.3507
   vertex 162.42770000000002 123.098 42.076
  endloop
 endfacet
 facet normal 0.6638000000000001 -0.6604 0.35100000000000003
  outer loop
   vertex 161.56300000000002 122.58120000000001 42.3507
   vertex 162.42770000000002 130.13840000000002 55.3211
   vertex 161.56300000000002 129.6216 55.595800000000004
  endloop
 endfacet
 facet normal 0.9982000000000001 -0.052500000000000005 0.0279
  outer loop
   vertex 160.2252 120.1496 43.6432
   vertex 160.2997 126.27040000000001 57.3772
   vertex 160.2997 119.2299 44.1321
  endloop
 endfacet
 facet normal 0.9796 0.1774 -0.09430000000000001
  outer loop
   vertex 160.2997 126.27040000000001 57.3772
   vertex 160.2252 120.1496 43.6432
   vertex 160.2252 127.1901 56.8883
  endloop
 endfacet
 facet normal 0.3158 0.8378 -0.44530000000000003
  outer loop
   vertex 162.9549 123.62870000000001 58.781400000000005
   vertex 163.9802 116.41380000000001 45.629000000000005
   vertex 162.9549 116.5883 45.536300000000004
  endloop
 endfacet
 facet normal 0.059500000000000004 0.8814000000000001 -0.4685
  outer loop
   vertex 163.9802 116.41380000000001 45.629000000000005
   vertex 162.9549 123.62870000000001 58.781400000000005
   vertex 163.9802 123.4542 58.874100000000006
  endloop
 endfacet
 facet normal -0.20090000000000002 0.865 -0.45980000000000004
  outer loop
   vertex 165.0218 116.4795 45.594100000000005
   vertex 166.0086 123.8215 58.678900000000006
   vertex 166.0086 116.78110000000001 45.433800000000005
  endloop
 endfacet
 facet normal -0.4476 0.7896000000000001 -0.4197
  outer loop
   vertex 166.0086 123.8215 58.678900000000006
   vertex 165.0218 116.4795 45.594100000000005
   vertex 165.0218 123.52000000000001 58.839200000000005
  endloop
 endfacet
 facet normal -0.8348 0.4862 -0.2584
  outer loop
   vertex 167.5572 125.0351 58.0338
   vertex 168.01340000000002 118.8241 44.3478
   vertex 167.5572 117.99470000000001 44.7887
  endloop
 endfacet
 facet normal -0.9488000000000001 0.27890000000000004 -0.1482
  outer loop
   vertex 168.01340000000002 118.8241 44.3478
   vertex 167.5572 125.0351 58.0338
   vertex 168.01340000000002 125.8645 57.5929
  endloop
 endfacet
 facet normal -0.9982000000000001 0.052500000000000005 -0.0279
  outer loop
   vertex 168.21110000000002 126.7699 57.111700000000006
   vertex 168.13660000000002 120.6491 43.377700000000004
   vertex 168.21110000000002 119.72940000000001 43.866600000000005
  endloop
 endfacet
 facet normal -0.9796 -0.1774 0.09430000000000001
  outer loop
   vertex 168.13660000000002 120.6491 43.377700000000004
   vertex 168.21110000000002 126.7699 57.111700000000006
   vertex 168.13660000000002 127.68960000000001 56.622800000000005
  endloop
 endfacet
 facet normal 0.0 0.309 0.9511000000000001
  outer loop
   vertex 173.2182 125.0652 25.6962
   vertex 155.2182 125.0652 25.6962
   vertex 173.2182 124.19040000000001 25.9804
  endloop
 endfacet
 facet normal 0.0 -0.309 -0.9511000000000001
  outer loop
   vertex 173.2182 126.8948 34.3038
   vertex 155.2182 127.76960000000001 34.019600000000004
   vertex 173.2182 127.76960000000001 34.019600000000004
  endloop
 endfacet
 facet normal 0.0 0.309 -0.9511000000000001
  outer loop
   vertex 173.2182 124.19040000000001 34.019600000000004
   vertex 155.2182 125.0652 34.3038
   vertex 173.2182 125.0652 34.3038
  endloop
 endfacet
 facet normal 0.0 0.6692 0.7431
  outer loop
   vertex 173.2182 123.39370000000001 26.4403
   vertex 155.2182 123.39370000000001 26.4403
   vertex 173.2182 122.7102 27.0558
  endloop
 endfacet
 facet normal 0.0 0.809 -0.5878
  outer loop
   vertex 155.2182 122.7102 12.9442
   vertex 173.2182 122.1695 12.200000000000001
   vertex 155.2182 122.1695 12.200000000000001
  endloop
 endfacet
 facet normal 0.0 -0.309 0.9511000000000001
  outer loop
   vertex 173.2182 126.8948 25.6962
   vertex 155.2182 127.76960000000001 25.9804
   vertex 155.2182 126.8948 25.6962
  endloop
 endfacet
 facet normal 0.0 0.9136000000000001 -0.4067
  outer loop
   vertex 155.2182 122.1695 32.2
   vertex 173.2182 121.7954 31.3597
   vertex 155.2182 121.7954 31.3597
  endloop
 endfacet
 facet normal 0.0 -0.4999 -0.8661000000000001
  outer loop
   vertex 173.2182 127.76960000000001 14.0196
   vertex 155.2182 127.76960000000001 14.0196
   vertex 155.2182 128.5663 13.559700000000001
  endloop
 endfacet
 facet normal 0.0 0.809 0.5878
  outer loop
   vertex 173.2182 122.1695 27.8
   vertex 155.2182 122.7102 27.0558
   vertex 155.2182 122.1695 27.8
  endloop
 endfacet
 facet normal 0.0 0.1046 0.9945
  outer loop
   vertex 173.2182 125.0652 25.6962
   vertex 155.2182 125.98 25.6
   vertex 155.2182 125.0652 25.6962
  endloop
 endfacet
 facet normal 0.0 0.1046 -0.9945
  outer loop
   vertex 173.2182 125.0652 34.3038
   vertex 155.2182 125.0652 34.3038
   vertex 155.2182 125.98 34.4
  endloop
 endfacet
 facet normal 0.0 0.9781000000000001 -0.20800000000000002
  outer loop
   vertex 155.2182 121.7954 31.3597
   vertex 173.2182 121.6041 30.4599
   vertex 155.2182 121.6041 30.4599
  endloop
 endfacet
 facet normal 0.0 0.4999 -0.8661000000000001
  outer loop
   vertex 173.2182 123.39370000000001 33.5597
   vertex 155.2182 123.39370000000001 33.5597
   vertex 155.2182 124.19040000000001 34.019600000000004
  endloop
 endfacet
 facet normal 0.0 -1.0 0.0
  outer loop
   vertex 155.2182 130.35590000000002 30.4599
   vertex 155.2182 130.35590000000002 29.540100000000002
   vertex 173.2182 130.35590000000002 29.540100000000002
  endloop
 endfacet
 facet normal 0.0 -0.6692 -0.7431
  outer loop
   vertex 173.2182 128.5663 33.5597
   vertex 155.2182 128.5663 33.5597
   vertex 155.2182 129.2498 32.9442
  endloop
 endfacet
 facet normal 0.0 -0.309 -0.9511000000000001
  outer loop
   vertex 173.2182 126.8948 34.3038
   vertex 155.2182 126.8948 34.3038
   vertex 155.2182 127.76960000000001 34.019600000000004
  endloop
 endfacet
 facet normal 0.0 -0.809 0.5878
  outer loop
   vertex 155.2182 129.7905 27.8
   vertex 155.2182 129.2498 27.0558
   vertex 173.2182 129.2498 27.0558
  endloop
 endfacet
 facet normal 0.0 0.4999 -0.8661000000000001
  outer loop
   vertex 173.2182 123.39370000000001 33.5597
   vertex 155.2182 124.19040000000001 34.019600000000004
   vertex 173.2182 124.19040000000001 34.019600000000004
  endloop
 endfacet
 facet normal 0.0 -0.809 -0.5878
  outer loop
   vertex 173.2182 129.2498 32.9442
   vertex 155.2182 129.7905 32.2
   vertex 173.2182 129.7905 32.2
  endloop
 endfacet
 facet normal 0.0 -1.0 0.0
  outer loop
   vertex 155.2182 130.35590000000002 30.4599
   vertex 173.2182 130.35590000000002 29.540100000000002
   vertex 173.2182 130.35590000000002 30.4599
  endloop
 endfacet
 facet normal 0.0 -0.9782000000000001 0.2079
  outer loop
   vertex 155.2182 130.35590000000002 29.540100000000002
   vertex 173.2182 130.1647 28.6403
   vertex 173.2182 130.35590000000002 29.540100000000002
  endloop
 endfacet
 facet normal 0.0 -0.9135000000000001 0.4068
  outer loop
   vertex 155.2182 130.1647 28.6403
   vertex 155.2182 129.7905 27.8
   vertex 173.2182 129.7905 27.8
  endloop
 endfacet
 facet normal 0.0 -0.809 0.5878
  outer loop
   vertex 155.2182 129.7905 27.8
   vertex 173.2182 129.2498 27.0558
   vertex 173.2182 129.7905 27.8
  endloop
 endfacet
 facet normal 0.0 0.309 -0.9511000000000001
  outer loop
   vertex 173.2182 124.19040000000001 34.019600000000004
   vertex 155.2182 124.19040000000001 34.019600000000004
   vertex 155.2182 125.0652 34.3038
  endloop
 endfacet
 facet normal 0.0 0.0 -1.0
  outer loop
   vertex 173.2182 136.98000000000002 0.0
   vertex 155.2182 117.98 0.0
   vertex 155.2182 136.98000000000002 0.0
  endloop
 endfacet
 facet normal 0.0 0.0 -1.0
  outer loop
   vertex 155.2182 117.98 0.0
   vertex 173.2182 136.98000000000002 0.0
   vertex 158.2182 114.98 0.0
  endloop
 endfacet
 facet normal 0.0 0.0 -1.0
  outer loop
   vertex 158.2182 114.98 0.0
   vertex 173.2182 136.98000000000002 0.0
   vertex 170.2182 114.98 0.0
  endloop
 endfacet
 facet normal 0.0 0.0 -1.0
  outer loop
   vertex 170.2182 114.98 0.0
   vertex 173.2182 136.98000000000002 0.0
   vertex 173.2182 117.98 0.0
  endloop
 endfacet
 facet normal 0.0 -0.6692 0.7431
  outer loop
   vertex 173.2182 129.2498 27.0558
   vertex 155.2182 129.2498 27.0558
   vertex 173.2182 128.5663 26.4403
  endloop
 endfacet
 facet normal 0.0 -0.809 -0.5878
  outer loop
   vertex 155.2182 129.2498 32.9442
   vertex 155.2182 129.7905 32.2
   vertex 173.2182 129.2498 32.9442
  endloop
 endfacet
 facet normal 0.0 -0.9135000000000001 -0.4068
  outer loop
   vertex 173.2182 129.7905 32.2
   vertex 155.2182 130.1647 31.3597
   vertex 173.2182 130.1647 31.3597
  endloop
 endfacet
 facet normal 0.0 -0.1046 -0.9945
  outer loop
   vertex 173.2182 125.98 34.4
   vertex 155.2182 125.98 34.4
   vertex 155.2182 126.8948 34.3038
  endloop
 endfacet
 facet normal 0.0 0.9781000000000001 -0.20800000000000002
  outer loop
   vertex 173.2182 121.7954 31.3597
   vertex 173.2182 121.6041 30.4599
   vertex 155.2182 121.7954 31.3597
  endloop
 endfacet
 facet normal 0.0 0.1046 -0.9945
  outer loop
   vertex 173.2182 125.0652 34.3038
   vertex 155.2182 125.98 34.4
   vertex 173.2182 125.98 34.4
  endloop
 endfacet
 facet normal 0.0 -0.9782000000000001 -0.2079
  outer loop
   vertex 155.2182 130.1647 31.3597
   vertex 155.2182 130.35590000000002 30.4599
   vertex 173.2182 130.1647 31.3597
  endloop
 endfacet
 facet normal 0.0 0.809 -0.5878
  outer loop
   vertex 173.2182 122.7102 32.9442
   vertex 173.2182 122.1695 32.2
   vertex 155.2182 122.7102 32.9442
  endloop
 endfacet
 facet normal 0.0 -0.6692 -0.7431
  outer loop
   vertex 173.2182 128.5663 33.5597
   vertex 155.2182 129.2498 32.9442
   vertex 173.2182 129.2498 32.9442
  endloop
 endfacet
 facet normal 0.0 0.9136000000000001 -0.4067
  outer loop
   vertex 173.2182 122.1695 32.2
   vertex 173.2182 121.7954 31.3597
   vertex 155.2182 122.1695 32.2
  endloop
 endfacet
 facet normal 0.0 -0.1046 -0.9945
  outer loop
   vertex 173.2182 125.98 34.4
   vertex 155.2182 126.8948 34.3038
   vertex 173.2182 126.8948 34.3038
  endloop
 endfacet
 facet normal 0.0 -0.6692 0.7431
  outer loop
   vertex 173.2182 128.5663 26.4403
   vertex 155.2182 129.2498 27.0558
   vertex 155.2182 128.5663 26.4403
  endloop
 endfacet
 facet normal 0.0 -0.4999 -0.8661000000000001
  outer loop
   vertex 173.2182 127.76960000000001 34.019600000000004
   vertex 155.2182 127.76960000000001 34.019600000000004
   vertex 155.2182 128.5663 33.5597
  endloop
 endfacet
 facet normal 0.0 1.0 0.0
  outer loop
   vertex 173.2182 121.6041 30.4599
   vertex 173.2182 121.6041 29.540100000000002
   vertex 155.2182 121.6041 30.4599
  endloop
 endfacet
 facet normal 0.0 0.6692 -0.7431
  outer loop
   vertex 173.2182 122.7102 32.9442
   vertex 155.2182 122.7102 32.9442
   vertex 155.2182 123.39370000000001 33.5597
  endloop
 endfacet
 facet normal 0.0 1.0 0.0
  outer loop
   vertex 155.2182 121.6041 30.4599
   vertex 173.2182 121.6041 29.540100000000002
   vertex 155.2182 121.6041 29.540100000000002
  endloop
 endfacet
 facet normal 0.0 -0.4999 0.8661000000000001
  outer loop
   vertex 173.2182 128.5663 26.4403
   vertex 155.2182 128.5663 26.4403
   vertex 173.2182 127.76960000000001 25.9804
  endloop
 endfacet
 facet normal 0.0 -0.9135000000000001 0.4068
  outer loop
   vertex 155.2182 130.1647 28.6403
   vertex 173.2182 129.7905 27.8
   vertex 173.2182 130.1647 28.6403
  endloop
 endfacet
 facet normal 0.0 -0.9782000000000001 0.2079
  outer loop
   vertex 155.2182 130.35590000000002 29.540100000000002
   vertex 155.2182 130.1647 28.6403
   vertex 173.2182 130.1647 28.6403
  endloop
 endfacet
 facet normal 0.0 -0.1046 0.9945
  outer loop
   vertex 173.2182 126.8948 5.6962
   vertex 155.2182 126.8948 5.6962
   vertex 173.2182 125.98 5.6000000000000005
  endloop
 endfacet
 facet normal 0.0 -0.9135000000000001 -0.4068
  outer loop
   vertex 155.2182 129.7905 32.2
   vertex 155.2182 130.1647 31.3597
   vertex 173.2182 129.7905 32.2
  endloop
 endfacet
 facet normal 0.0 0.309 0.9511000000000001
  outer loop
   vertex 173.2182 124.19040000000001 25.9804
   vertex 155.2182 125.0652 25.6962
   vertex 155.2182 124.19040000000001 25.9804
  endloop
 endfacet
 facet normal 0.0 -0.9135000000000001 -0.4068
  outer loop
   vertex 173.2182 129.7905 12.200000000000001
   vertex 155.2182 130.1647 11.3597
   vertex 173.2182 130.1647 11.3597
  endloop
 endfacet
 facet normal 0.0 0.9136000000000001 0.4067
  outer loop
   vertex 173.2182 121.7954 28.6403
   vertex 155.2182 122.1695 27.8
   vertex 155.2182 121.7954 28.6403
  endloop
 endfacet
 facet normal 0.0 -1.0 0.0
  outer loop
   vertex 170.2182 114.98 45.0
   vertex 158.2182 114.98 0.0
   vertex 170.2182 114.98 0.0
  endloop
 endfacet
 facet normal 0.0 -1.0 0.0
  outer loop
   vertex 158.2182 114.98 0.0
   vertex 170.2182 114.98 45.0
   vertex 158.2182 114.98 45.0
  endloop
 endfacet
 facet normal 0.0 0.809 -0.5878
  outer loop
   vertex 155.2182 122.7102 32.9442
   vertex 173.2182 122.1695 32.2
   vertex 155.2182 122.1695 32.2
  endloop
 endfacet
 facet normal 0.0 0.6692 -0.7431
  outer loop
   vertex 173.2182 122.7102 32.9442
   vertex 155.2182 123.39370000000001 33.5597
   vertex 173.2182 123.39370000000001 33.5597
  endloop
 endfacet
 facet normal 0.0 -0.4999 -0.8661000000000001
  outer loop
   vertex 173.2182 127.76960000000001 34.019600000000004
   vertex 155.2182 128.5663 33.5597
   vertex 173.2182 128.5663 33.5597
  endloop
 endfacet
 facet normal -0.7071000000000001 -0.7071000000000001 0.0
  outer loop
   vertex 155.2182 117.98 45.0
   vertex 158.2182 114.98 0.0
   vertex 158.2182 114.98 45.0
  endloop
 endfacet
 facet normal -0.7071000000000001 -0.7071000000000001 0.0
  outer loop
   vertex 158.2182 114.98 0.0
   vertex 155.2182 117.98 45.0
   vertex 155.2182 117.98 0.0
  endloop
 endfacet
 facet normal 0.0 -0.6692 -0.7431
  outer loop
   vertex 173.2182 128.5663 13.559700000000001
   vertex 155.2182 129.2498 12.9442
   vertex 173.2182 129.2498 12.9442
  endloop
 endfacet
 facet normal -0.6902 -0.6902 0.21760000000000002
  outer loop
   vertex 157.2182 120.7989 60.285500000000006
   vertex 155.2182 117.98 45.0
   vertex 158.2182 114.98 45.0
  endloop
 endfacet
 facet normal 0.0 -0.9782000000000001 0.2079
  outer loop
   vertex 155.2182 130.35590000000002 9.5401
   vertex 155.2182 130.1647 8.6403
   vertex 173.2182 130.1647 8.6403
  endloop
 endfacet
 facet normal 0.0 0.6692 0.7431
  outer loop
   vertex 173.2182 122.7102 27.0558
   vertex 155.2182 123.39370000000001 26.4403
   vertex 155.2182 122.7102 27.0558
  endloop
 endfacet
 facet normal 0.0 0.6692 -0.7431
  outer loop
   vertex 173.2182 122.7102 12.9442
   vertex 155.2182 123.39370000000001 13.559700000000001
   vertex 173.2182 123.39370000000001 13.559700000000001
  endloop
 endfacet
 facet normal 0.0 0.4999 0.8661000000000001
  outer loop
   vertex 173.2182 123.39370000000001 26.4403
   vertex 155.2182 124.19040000000001 25.9804
   vertex 155.2182 123.39370000000001 26.4403
  endloop
 endfacet
 facet normal 0.0 -0.1046 -0.9945
  outer loop
   vertex 173.2182 125.98 14.4
   vertex 155.2182 125.98 14.4
   vertex 155.2182 126.8948 14.3038
  endloop
 endfacet
 facet normal 0.0 -0.4999 0.8661000000000001
  outer loop
   vertex 173.2182 127.76960000000001 25.9804
   vertex 155.2182 128.1679 26.2103
   vertex 155.2182 127.76960000000001 25.9804
  endloop
 endfacet
 facet normal 0.0 -0.4999 0.8661000000000001
  outer loop
   vertex 155.2182 128.1679 26.2103
   vertex 173.2182 127.76960000000001 25.9804
   vertex 155.2182 128.5663 26.4403
  endloop
 endfacet
 facet normal 0.0 0.309 -0.9511000000000001
  outer loop
   vertex 173.2182 124.19040000000001 14.0196
   vertex 155.2182 124.19040000000001 14.0196
   vertex 155.2182 125.0652 14.3038
  endloop
 endfacet
 facet normal 0.0 -0.4999 -0.8661000000000001
  outer loop
   vertex 173.2182 127.76960000000001 14.0196
   vertex 155.2182 128.5663 13.559700000000001
   vertex 173.2182 128.5663 13.559700000000001
  endloop
 endfacet
 facet normal 0.0 0.9136000000000001 -0.4067
  outer loop
   vertex 173.2182 122.1695 12.200000000000001
   vertex 173.2182 121.7954 11.3597
   vertex 155.2182 122.1695 12.200000000000001
  endloop
 endfacet
 facet normal 0.0 -0.309 -0.9511000000000001
  outer loop
   vertex 173.2182 126.8948 14.3038
   vertex 155.2182 127.76960000000001 14.0196
   vertex 173.2182 127.76960000000001 14.0196
  endloop
 endfacet
 facet normal 0.0 -0.809 -0.5878
  outer loop
   vertex 155.2182 129.2498 12.9442
   vertex 155.2182 129.7905 12.200000000000001
   vertex 173.2182 129.2498 12.9442
  endloop
 endfacet
 facet normal 0.0 -0.9135000000000001 -0.4068
  outer loop
   vertex 155.2182 129.7905 12.200000000000001
   vertex 155.2182 130.1647 11.3597
   vertex 173.2182 129.7905 12.200000000000001
  endloop
 endfacet
 facet normal 0.0 -0.6692 -0.7431
  outer loop
   vertex 173.2182 128.5663 13.559700000000001
   vertex 155.2182 128.5663 13.559700000000001
   vertex 155.2182 129.2498 12.9442
  endloop
 endfacet
 facet normal 0.0 -0.1046 0.9945
  outer loop
   vertex 173.2182 126.8948 25.6962
   vertex 155.2182 126.8948 25.6962
   vertex 173.2182 125.98 25.6
  endloop
 endfacet
 facet normal 0.0 -0.309 0.9511000000000001
  outer loop
   vertex 173.2182 127.76960000000001 25.9804
   vertex 155.2182 127.76960000000001 25.9804
   vertex 173.2182 126.8948 25.6962
  endloop
 endfacet
 facet normal 0.0 -1.0 0.0
  outer loop
   vertex 155.2182 130.35590000000002 10.459900000000001
   vertex 173.2182 130.35590000000002 9.5401
   vertex 173.2182 130.35590000000002 10.459900000000001
  endloop
 endfacet
 facet normal 0.0 -0.809 0.5878
  outer loop
   vertex 155.2182 129.7905 7.800000000000001
   vertex 173.2182 129.2498 7.0558000000000005
   vertex 173.2182 129.7905 7.800000000000001
  endloop
 endfacet
 facet normal 0.0 0.9781000000000001 -0.20800000000000002
  outer loop
   vertex 173.2182 121.7954 11.3597
   vertex 173.2182 121.6041 10.459900000000001
   vertex 155.2182 121.7954 11.3597
  endloop
 endfacet
 facet normal 0.0 0.1046 -0.9945
  outer loop
   vertex 173.2182 125.0652 14.3038
   vertex 155.2182 125.0652 14.3038
   vertex 155.2182 125.98 14.4
  endloop
 endfacet
 facet normal 0.0 -0.9135000000000001 0.4068
  outer loop
   vertex 155.2182 130.1647 8.6403
   vertex 155.2182 129.7905 7.800000000000001
   vertex 173.2182 129.7905 7.800000000000001
  endloop
 endfacet
 facet normal 0.0 -0.9782000000000001 0.2079
  outer loop
   vertex 155.2182 130.35590000000002 9.5401
   vertex 173.2182 130.1647 8.6403
   vertex 173.2182 130.35590000000002 9.5401
  endloop
 endfacet
 facet normal 0.0 0.9136000000000001 -0.4067
  outer loop
   vertex 155.2182 122.1695 12.200000000000001
   vertex 173.2182 121.7954 11.3597
   vertex 155.2182 121.7954 11.3597
  endloop
 endfacet
 facet normal 0.0 1.0 0.0
  outer loop
   vertex 173.2182 121.6041 10.459900000000001
   vertex 173.2182 121.6041 9.5401
   vertex 155.2182 121.6041 10.459900000000001
  endloop
 endfacet
 facet normal 0.0 -0.309 0.9511000000000001
  outer loop
   vertex 173.2182 127.76960000000001 5.9804
   vertex 155.2182 127.76960000000001 5.9804
   vertex 173.2182 126.8948 5.6962
  endloop
 endfacet
 facet normal 0.0 1.0 0.0
  outer loop
   vertex 155.2182 121.6041 10.459900000000001
   vertex 173.2182 121.6041 9.5401
   vertex 155.2182 121.6041 9.5401
  endloop
 endfacet
 facet normal 0.0 0.9136000000000001 0.4067
  outer loop
   vertex 173.2182 121.7954 28.6403
   vertex 173.2182 122.1695 27.8
   vertex 155.2182 122.1695 27.8
  endloop
 endfacet
 facet normal 0.0 -0.1046 0.9945
  outer loop
   vertex 173.2182 125.98 5.6000000000000005
   vertex 155.2182 126.8948 5.6962
   vertex 155.2182 125.98 5.6000000000000005
  endloop
 endfacet
 facet normal 0.0 0.4999 -0.8661000000000001
  outer loop
   vertex 173.2182 123.39370000000001 13.559700000000001
   vertex 155.2182 123.39370000000001 13.559700000000001
   vertex 155.2182 124.19040000000001 14.0196
  endloop
 endfacet
 facet normal 0.0 0.9781000000000001 -0.20800000000000002
  outer loop
   vertex 155.2182 121.7954 11.3597
   vertex 173.2182 121.6041 10.459900000000001
   vertex 155.2182 121.6041 10.459900000000001
  endloop
 endfacet
 facet normal 0.0 -0.4999 0.8661000000000001
  outer loop
   vertex 173.2182 127.76960000000001 5.9804
   vertex 155.2182 128.5663 6.440300000000001
   vertex 155.2182 127.76960000000001 5.9804
  endloop
 endfacet
 facet normal 1.0 0.0 0.0
  outer loop
   vertex 173.2182 117.98 0.0
   vertex 173.2182 121.6041 9.5401
   vertex 173.2182 117.98 45.0
  endloop
 endfacet
 facet normal 1.0 0.0 0.0
  outer loop
   vertex 173.2182 121.6041 9.5401
   vertex 173.2182 117.98 0.0
   vertex 173.2182 121.7954 8.6403
  endloop
 endfacet
 facet normal 1.0 0.0 0.0
  outer loop
   vertex 173.2182 121.7954 8.6403
   vertex 173.2182 117.98 0.0
   vertex 173.2182 122.1695 7.800000000000001
  endloop
 endfacet
 facet normal 1.0 0.0 0.0
  outer loop
   vertex 173.2182 122.1695 7.800000000000001
   vertex 173.2182 117.98 0.0
   vertex 173.2182 122.7102 7.0558000000000005
  endloop
 endfacet
 facet normal 1.0 0.0 0.0
  outer loop
   vertex 173.2182 122.7102 7.0558000000000005
   vertex 173.2182 117.98 0.0
   vertex 173.2182 123.39370000000001 6.440300000000001
  endloop
 endfacet
 facet normal 1.0 0.0 0.0
  outer loop
   vertex 173.2182 123.39370000000001 6.440300000000001
   vertex 173.2182 117.98 0.0
   vertex 173.2182 124.19040000000001 5.9804
  endloop
 endfacet
 facet normal 1.0 0.0 0.0
  outer loop
   vertex 173.2182 124.19040000000001 5.9804
   vertex 173.2182 117.98 0.0
   vertex 173.2182 136.98000000000002 0.0
  endloop
 endfacet
 facet normal 1.0 0.0 0.0
  outer loop
   vertex 173.2182 124.19040000000001 5.9804
   vertex 173.2182 136.98000000000002 0.0
   vertex 173.2182 125.0652 5.6962
  endloop
 endfacet
 facet normal 1.0 0.0 0.0
  outer loop
   vertex 173.2182 125.0652 5.6962
   vertex 173.2182 136.98000000000002 0.0
   vertex 173.2182 125.98 5.6000000000000005
  endloop
 endfacet
 facet normal 1.0 0.0 0.0
  outer loop
   vertex 173.2182 125.98 5.6000000000000005
   vertex 173.2182 136.98000000000002 0.0
   vertex 173.2182 126.8948 5.6962
  endloop
 endfacet
 facet normal 1.0 0.0 0.0
  outer loop
   vertex 173.2182 126.8948 5.6962
   vertex 173.2182 136.98000000000002 0.0
   vertex 173.2182 127.76960000000001 5.9804
  endloop
 endfacet
 facet normal 1.0 0.0 0.0
  outer loop
   vertex 173.2182 127.76960000000001 5.9804
   vertex 173.2182 136.98000000000002 0.0
   vertex 173.2182 128.5663 6.440300000000001
  endloop
 endfacet
 facet normal 1.0 0.0 0.0
  outer loop
   vertex 173.2182 128.5663 6.440300000000001
   vertex 173.2182 136.98000000000002 0.0
   vertex 173.2182 129.2498 7.0558000000000005
  endloop
 endfacet
 facet normal 1.0 0.0 0.0
  outer loop
   vertex 173.2182 129.2498 7.0558000000000005
   vertex 173.2182 136.98000000000002 0.0
   vertex 173.2182 129.7905 7.800000000000001
  endloop
 endfacet
 facet normal 1.0 0.0 0.0
  outer loop
   vertex 173.2182 129.7905 7.800000000000001
   vertex 173.2182 136.98000000000002 0.0
   vertex 173.2182 130.1647 8.6403
  endloop
 endfacet
 facet normal 1.0 0.0 0.0
  outer loop
   vertex 173.2182 130.1647 8.6403
   vertex 173.2182 136.98000000000002 0.0
   vertex 173.2182 130.35590000000002 9.5401
  endloop
 endfacet
 facet normal 1.0 0.0 0.0
  outer loop
   vertex 173.2182 130.35590000000002 9.5401
   vertex 173.2182 136.98000000000002 0.0
   vertex 173.2182 130.35590000000002 10.459900000000001
  endloop
 endfacet
 facet normal 1.0 0.0 0.0
  outer loop
   vertex 173.2182 130.35590000000002 10.459900000000001
   vertex 173.2182 136.98000000000002 0.0
   vertex 173.2182 130.35590000000002 29.540100000000002
  endloop
 endfacet
 facet normal 1.0 0.0 0.0
  outer loop
   vertex 173.2182 130.35590000000002 29.540100000000002
   vertex 173.2182 136.98000000000002 0.0
   vertex 173.2182 130.35590000000002 30.4599
  endloop
 endfacet
 facet normal 1.0 0.0 0.0
  outer loop
   vertex 173.2182 117.98 45.0
   vertex 173.2182 123.39370000000001 33.5597
   vertex 173.2182 136.98000000000002 45.0
  endloop
 endfacet
 facet normal 1.0 0.0 0.0
  outer loop
   vertex 173.2182 123.39370000000001 33.5597
   vertex 173.2182 117.98 45.0
   vertex 173.2182 122.7102 32.9442
  endloop
 endfacet
 facet normal 1.0 0.0 0.0
  outer loop
   vertex 173.2182 122.7102 32.9442
   vertex 173.2182 117.98 45.0
   vertex 173.2182 122.1695 32.2
  endloop
 endfacet
 facet normal 1.0 0.0 0.0
  outer loop
   vertex 173.2182 122.1695 32.2
   vertex 173.2182 117.98 45.0
   vertex 173.2182 121.7954 31.3597
  endloop
 endfacet
 facet normal 1.0 0.0 0.0
  outer loop
   vertex 173.2182 121.7954 31.3597
   vertex 173.2182 117.98 45.0
   vertex 173.2182 121.6041 30.4599
  endloop
 endfacet
 facet normal 1.0 0.0 0.0
  outer loop
   vertex 173.2182 121.6041 30.4599
   vertex 173.2182 117.98 45.0
   vertex 173.2182 121.6041 9.5401
  endloop
 endfacet
 facet normal 1.0 0.0 0.0
  outer loop
   vertex 173.2182 121.6041 30.4599
   vertex 173.2182 121.6041 9.5401
   vertex 173.2182 121.6041 10.459900000000001
  endloop
 endfacet
 facet normal 1.0 0.0 0.0
  outer loop
   vertex 173.2182 121.6041 30.4599
   vertex 173.2182 121.6041 10.459900000000001
   vertex 173.2182 121.6041 29.540100000000002
  endloop
 endfacet
 facet normal 1.0 0.0 0.0
  outer loop
   vertex 173.2182 136.98000000000002 45.0
   vertex 173.2182 123.39370000000001 33.5597
   vertex 173.2182 124.19040000000001 34.019600000000004
  endloop
 endfacet
 facet normal 1.0 0.0 0.0
  outer loop
   vertex 173.2182 136.98000000000002 45.0
   vertex 173.2182 124.19040000000001 34.019600000000004
   vertex 173.2182 125.0652 34.3038
  endloop
 endfacet
 facet normal 1.0 0.0 0.0
  outer loop
   vertex 173.2182 136.98000000000002 45.0
   vertex 173.2182 125.0652 34.3038
   vertex 173.2182 125.98 34.4
  endloop
 endfacet
 facet normal 1.0 0.0 0.0
  outer loop
   vertex 173.2182 136.98000000000002 45.0
   vertex 173.2182 125.98 34.4
   vertex 173.2182 126.8948 34.3038
  endloop
 endfacet
 facet normal 1.0 0.0 0.0
  outer loop
   vertex 173.2182 136.98000000000002 45.0
   vertex 173.2182 126.8948 34.3038
   vertex 173.2182 127.76960000000001 34.019600000000004
  endloop
 endfacet
 facet normal 1.0 0.0 0.0
  outer loop
   vertex 173.2182 136.98000000000002 45.0
   vertex 173.2182 127.76960000000001 34.019600000000004
   vertex 173.2182 128.5663 33.5597
  endloop
 endfacet
 facet normal 1.0 0.0 0.0
  outer loop
   vertex 173.2182 136.98000000000002 45.0
   vertex 173.2182 128.5663 33.5597
   vertex 173.2182 129.2498 32.9442
  endloop
 endfacet
 facet normal 1.0 0.0 0.0
  outer loop
   vertex 173.2182 136.98000000000002 45.0
   vertex 173.2182 129.2498 32.9442
   vertex 173.2182 129.7905 32.2
  endloop
 endfacet
 facet normal 1.0 0.0 0.0
  outer loop
   vertex 173.2182 136.98000000000002 45.0
   vertex 173.2182 129.7905 32.2
   vertex 173.2182 130.1647 31.3597
  endloop
 endfacet
 facet normal 1.0 0.0 0.0
  outer loop
   vertex 173.2182 136.98000000000002 45.0
   vertex 173.2182 130.1647 31.3597
   vertex 173.2182 130.35590000000002 30.4599
  endloop
 endfacet
 facet normal 1.0 0.0 0.0
  outer loop
   vertex 173.2182 136.98000000000002 45.0
   vertex 173.2182 130.35590000000002 30.4599
   vertex 173.2182 136.98000000000002 0.0
  endloop
 endfacet
 facet normal 1.0 0.0 0.0
  outer loop
   vertex 173.2182 121.7954 11.3597
   vertex 173.2182 121.6041 29.540100000000002
   vertex 173.2182 121.6041 10.459900000000001
  endloop
 endfacet
 facet normal 1.0 0.0 0.0
  outer loop
   vertex 173.2182 121.6041 29.540100000000002
   vertex 173.2182 121.7954 11.3597
   vertex 173.2182 121.7954 28.6403
  endloop
 endfacet
 facet normal 1.0 0.0 0.0
  outer loop
   vertex 173.2182 121.7954 28.6403
   vertex 173.2182 121.7954 11.3597
   vertex 173.2182 122.1695 12.200000000000001
  endloop
 endfacet
 facet normal 1.0 0.0 0.0
  outer loop
   vertex 173.2182 121.7954 28.6403
   vertex 173.2182 122.1695 12.200000000000001
   vertex 173.2182 122.1695 27.8
  endloop
 endfacet
 facet normal 1.0 0.0 0.0
  outer loop
   vertex 173.2182 122.1695 27.8
   vertex 173.2182 122.1695 12.200000000000001
   vertex 173.2182 122.7102 12.9442
  endloop
 endfacet
 facet normal 1.0 0.0 0.0
  outer loop
   vertex 173.2182 122.1695 27.8
   vertex 173.2182 122.7102 12.9442
   vertex 173.2182 122.7102 27.0558
  endloop
 endfacet
 facet normal 1.0 0.0 0.0
  outer loop
   vertex 173.2182 122.7102 27.0558
   vertex 173.2182 122.7102 12.9442
   vertex 173.2182 123.39370000000001 13.559700000000001
  endloop
 endfacet
 facet normal 1.0 0.0 0.0
  outer loop
   vertex 173.2182 122.7102 27.0558
   vertex 173.2182 123.39370000000001 13.559700000000001
   vertex 173.2182 123.39370000000001 26.4403
  endloop
 endfacet
 facet normal 1.0 0.0 0.0
  outer loop
   vertex 173.2182 123.39370000000001 26.4403
   vertex 173.2182 123.39370000000001 13.559700000000001
   vertex 173.2182 124.19040000000001 14.0196
  endloop
 endfacet
 facet normal 1.0 0.0 0.0
  outer loop
   vertex 173.2182 123.39370000000001 26.4403
   vertex 173.2182 124.19040000000001 14.0196
   vertex 173.2182 124.19040000000001 25.9804
  endloop
 endfacet
 facet normal 1.0 0.0 0.0
  outer loop
   vertex 173.2182 124.19040000000001 25.9804
   vertex 173.2182 124.19040000000001 14.0196
   vertex 173.2182 125.0652 14.3038
  endloop
 endfacet
 facet normal 1.0 0.0 0.0
  outer loop
   vertex 173.2182 124.19040000000001 25.9804
   vertex 173.2182 125.0652 14.3038
   vertex 173.2182 125.0652 25.6962
  endloop
 endfacet
 facet normal 1.0 0.0 0.0
  outer loop
   vertex 173.2182 125.0652 25.6962
   vertex 173.2182 125.0652 14.3038
   vertex 173.2182 125.98 14.4
  endloop
 endfacet
 facet normal 1.0 0.0 0.0
  outer loop
   vertex 173.2182 125.0652 25.6962
   vertex 173.2182 125.98 14.4
   vertex 173.2182 125.98 25.6
  endloop
 endfacet
 facet normal 1.0 0.0 0.0
  outer loop
   vertex 173.2182 125.98 25.6
   vertex 173.2182 125.98 14.4
   vertex 173.2182 126.8948 14.3038
  endloop
 endfacet
 facet normal 1.0 0.0 0.0
  outer loop
   vertex 173.2182 125.98 25.6
   vertex 173.2182 126.8948 14.3038
   vertex 173.2182 126.8948 25.6962
  endloop
 endfacet
 facet normal 1.0 0.0 0.0
  outer loop
   vertex 173.2182 126.8948 25.6962
   vertex 173.2182 126.8948 14.3038
   vertex 173.2182 127.76960000000001 14.0196
  endloop
 endfacet
 facet normal 1.0 0.0 0.0
  outer loop
   vertex 173.2182 126.8948 25.6962
   vertex 173.2182 127.76960000000001 14.0196
   vertex 173.2182 127.76960000000001 25.9804
  endloop
 endfacet
 facet normal 1.0 0.0 0.0
  outer loop
   vertex 173.2182 127.76960000000001 25.9804
   vertex 173.2182 127.76960000000001 14.0196
   vertex 173.2182 128.5663 13.559700000000001
  endloop
 endfacet
 facet normal 1.0 0.0 0.0
  outer loop
   vertex 173.2182 127.76960000000001 25.9804
   vertex 173.2182 128.5663 13.559700000000001
   vertex 173.2182 128.5663 26.4403
  endloop
 endfacet
 facet normal 1.0 0.0 0.0
  outer loop
   vertex 173.2182 128.5663 26.4403
   vertex 173.2182 128.5663 13.559700000000001
   vertex 173.2182 129.2498 12.9442
  endloop
 endfacet
 facet normal 1.0 0.0 0.0
  outer loop
   vertex 173.2182 128.5663 26.4403
   vertex 173.2182 129.2498 12.9442
   vertex 173.2182 129.2498 27.0558
  endloop
 endfacet
 facet normal 1.0 0.0 0.0
  outer loop
   vertex 173.2182 129.2498 27.0558
   vertex 173.2182 129.2498 12.9442
   vertex 173.2182 129.7905 12.200000000000001
  endloop
 endfacet
 facet normal 1.0 0.0 0.0
  outer loop
   vertex 173.2182 129.2498 27.0558
   vertex 173.2182 129.7905 12.200000000000001
   vertex 173.2182 129.7905 27.8
  endloop
 endfacet
 facet normal 1.0 0.0 0.0
  outer loop
   vertex 173.2182 129.7905 27.8
   vertex 173.2182 129.7905 12.200000000000001
   vertex 173.2182 130.1647 11.3597
  endloop
 endfacet
 facet normal 1.0 0.0 0.0
  outer loop
   vertex 173.2182 129.7905 27.8
   vertex 173.2182 130.1647 11.3597
   vertex 173.2182 130.1647 28.6403
  endloop
 endfacet
 facet normal 1.0 0.0 0.0
  outer loop
   vertex 173.2182 130.1647 28.6403
   vertex 173.2182 130.1647 11.3597
   vertex 173.2182 130.35590000000002 10.459900000000001
  endloop
 endfacet
 facet normal 1.0 0.0 0.0
  outer loop
   vertex 173.2182 130.1647 28.6403
   vertex 173.2182 130.35590000000002 10.459900000000001
   vertex 173.2182 130.35590000000002 29.540100000000002
  endloop
 endfacet
 facet normal 0.7071000000000001 -0.7071000000000001 0.0
  outer loop
   vertex 173.2182 117.98 0.0
   vertex 170.2182 114.98 45.0
   vertex 170.2182 114.98 0.0
  endloop
 endfacet
 facet normal 0.7071000000000001 -0.7071000000000001 0.0
  outer loop
   vertex 170.2182 114.98 45.0
   vertex 173.2182 117.98 0.0
   vertex 173.2182 117.98 45.0
  endloop
 endfacet
 facet normal 0.0 -0.809 0.5878
  outer loop
   vertex 155.2182 129.7905 7.800000000000001
   vertex 155.2182 129.2498 7.0558000000000005
   vertex 173.2182 129.2498 7.0558000000000005
  endloop
 endfacet
 facet normal 0.0 0.4999 0.8661000000000001
  outer loop
   vertex 173.2182 124.19040000000001 25.9804
   vertex 155.2182 124.19040000000001 25.9804
   vertex 173.2182 123.39370000000001 26.4403
  endloop
 endfacet
 facet normal 0.0 -0.9782000000000001 -0.2079
  outer loop
   vertex 173.2182 130.1647 11.3597
   vertex 155.2182 130.35590000000002 10.459900000000001
   vertex 173.2182 130.35590000000002 10.459900000000001
  endloop
 endfacet
 facet normal 0.0 -0.6692 0.7431
  outer loop
   vertex 173.2182 128.5663 6.440300000000001
   vertex 155.2182 129.2498 7.0558000000000005
   vertex 155.2182 128.5663 6.440300000000001
  endloop
 endfacet
 facet normal 0.0 -0.309 -0.9511000000000001
  outer loop
   vertex 173.2182 126.8948 14.3038
   vertex 155.2182 126.8948 14.3038
   vertex 155.2182 127.76960000000001 14.0196
  endloop
 endfacet
endsolid Y Außenpfeiler vorne.stl
